<?xml version="1.0" encoding="UTF-8"?> <svg xmlns="http://www.w3.org/2000/svg" width="66" height="62" viewBox="0 0 66 62"><g fill="#FFF"><path d="M12.497 46.473A12.125 12.125 0 0 1 4.11 43.13a11.913 11.913 0 0 1-3.73-8.464v-.539c0-6.254 10.657-25.177 11.09-25.986a1.16 1.16 0 0 1 1.028-.593c.433 0 .811.215 1.028.593.432.809 11.09 19.732 11.09 25.986.054 3.235-1.136 6.308-3.354 8.626a11.992 11.992 0 0 1-8.494 3.72h-.27zm0-35.26c-3.463 6.309-9.738 18.763-9.738 22.968v.485a9.555 9.555 0 0 0 3.03 6.793c1.893 1.78 4.327 2.75 6.924 2.696a9.618 9.618 0 0 0 6.817-3.02c1.785-1.886 2.759-4.312 2.704-6.9 0-4.313-6.275-16.713-9.737-23.021zm41.06 35.26a12.125 12.125 0 0 1-8.385-3.343 11.913 11.913 0 0 1-3.733-8.464v-.539c0-6.254 10.658-25.177 11.09-25.986a1.16 1.16 0 0 1 1.028-.593c.433 0 .812.215 1.028.593.433.809 11.09 19.732 11.09 25.986.055 3.235-1.136 6.308-3.354 8.626a11.992 11.992 0 0 1-8.493 3.72h-.27zm0-35.26c-3.462 6.309-9.737 18.763-9.737 22.968v.431a9.555 9.555 0 0 0 3.03 6.793c1.893 1.78 4.381 2.75 6.924 2.696a9.618 9.618 0 0 0 6.816-3.02c1.785-1.886 2.76-4.312 2.705-6.9 0-4.26-6.275-16.66-9.738-22.967zm-2.65-4.15h-10.17A1.14 1.14 0 0 1 39.6 5.93c0-.593.541-1.132 1.136-1.132h10.17c.65 0 1.137.54 1.137 1.132a1.14 1.14 0 0 1-1.136 1.133zM25.21 7.17H15.04a1.14 1.14 0 0 1-1.137-1.132c0-.593.541-1.132 1.136-1.132h10.17c.65 0 1.137.54 1.137 1.132A1.14 1.14 0 0 1 25.21 7.17z"></path><path d="M55.397 30.353c.324.108.649.27.973.485.217.108.38.324.541.485.109.162.217.378.217.594.054.27.054.485.054.754 0 .324-.054.647-.162.97-.109.27-.27.486-.487.702a2.059 2.059 0 0 1-.703.485 4.667 4.667 0 0 1-.92.27v.646a.78.78 0 0 1-.108.378.554.554 0 0 1-.325.27 1.928 1.928 0 0 1-.54.107c-.217 0-.38 0-.596-.108-.108-.054-.216-.161-.325-.27a.997.997 0 0 1-.108-.377v-.754a2.688 2.688 0 0 1-1.082-.432c-.216-.161-.433-.323-.595-.539-.108-.162-.216-.323-.216-.539-.054-.108-.054-.27-.054-.431v-.432c0-.107.054-.215.162-.323.108-.108.216-.216.379-.27.216-.107.487-.161.703-.107h.27c.109 0 .27.053.38.107.107.054.27.162.324.27a.868.868 0 0 1 .162.485c0 .162.108.378.216.431a.916.916 0 0 0 .541.162c.163 0 .325-.054.433-.108.108-.107.217-.27.162-.431a.411.411 0 0 0-.108-.27c-.054-.107-.162-.161-.216-.215l-.325-.162a2.642 2.642 0 0 0-.378-.162l-.109-.054a12.714 12.714 0 0 1-1.19-.539c-.324-.161-.595-.377-.865-.593a2.037 2.037 0 0 1-.541-.647c-.109-.27-.217-.539-.217-.808v-.486c0-.27.054-.539.163-.808.108-.216.27-.432.432-.593.163-.162.379-.27.65-.378a4.52 4.52 0 0 1 .811-.215v-1.079c0-.107.054-.27.108-.377a.554.554 0 0 1 .325-.27 1.95 1.95 0 0 1 .595-.107c.162 0 .379.053.54.107.109.054.217.162.325.27.055.108.109.27.109.377v1.079c.378.054.703.161 1.028.323.27.108.486.324.649.485.162.162.27.378.324.593.054.216.108.378.108.593 0 .162-.054.378-.108.486a.554.554 0 0 1-.324.27c-.109.053-.27.107-.433.107h-.812c-.108 0-.27-.054-.378-.108-.108-.054-.217-.108-.27-.215-.109-.108-.109-.216-.109-.378v-.27a.408.408 0 0 0-.108-.215.747.747 0 0 0-.217-.162c-.108-.054-.216-.054-.378-.054h-.217c-.054 0-.162.054-.216.054l-.162.162c-.054.108-.054.216-.054.323 0 .162.108.378.27.486.162.161.379.27.595.377.217.108.487.216.703.27.325.161.541.215.704.323zm-44.415-.916c.054.539-.108 1.024-.487 1.455a1.785 1.785 0 0 1-1.352.431 1.912 1.912 0 0 1-1.407-.43c-.379-.378-.54-.917-.487-1.456-.054-.54.162-1.025.487-1.402.379-.324.92-.485 1.407-.432a1.912 1.912 0 0 1 1.406.432c.325.377.487.862.433 1.402zm-1.19 0c.054-.324-.162-.594-.487-.647h-.162c-.163 0-.38.053-.487.161a.806.806 0 0 0 0 .97c.108.109.324.162.487.162.324.054.595-.161.649-.485v-.161zm1.082 6.253a.408.408 0 0 0-.108.216c-.055.054-.109.162-.163.216-.054.054-.162.108-.216.161-.108.054-.217.054-.27.054-.055 0-.109 0-.163-.054-.054 0-.108-.053-.216-.107-.163-.054-.27-.162-.379-.324a.296.296 0 0 1-.162-.27c0-.107 0-.215.054-.323.054-.108.108-.216.108-.27l3.841-7.332c.054-.054.054-.161.108-.215a.745.745 0 0 0 .162-.216c.055-.054.109-.108.163-.108.054-.054.162-.054.216-.054h.27a.41.41 0 0 1 .217.108c.162.054.27.162.379.27.054.108.108.215.108.323 0 .108 0 .216-.054.378-.054.107-.108.161-.108.27l-3.787 7.277zm6.059-1.779c.054.54-.108 1.025-.487 1.456a1.785 1.785 0 0 1-1.353.431 1.912 1.912 0 0 1-1.406-.431c-.379-.377-.541-.917-.487-1.456-.054-.539.108-1.024.487-1.401a1.91 1.91 0 0 1 1.406-.432 1.912 1.912 0 0 1 1.407.432c.325.377.487.862.433 1.401zm-1.19 0c.054-.323-.163-.593-.487-.647h-.163c-.162 0-.378.054-.486.162a.868.868 0 0 0-.163.485c0 .162.054.378.163.486a.875.875 0 0 0 .486.161c.325.054.596-.161.65-.485v-.162zM36.138 53.05h-6.33a1.14 1.14 0 0 1-1.136-1.132V11.106a1.14 1.14 0 0 1 1.136-1.132h6.33a1.14 1.14 0 0 1 1.136 1.132v40.812a1.14 1.14 0 0 1-1.136 1.132zm-5.194-2.264h4.004V12.238h-4.004v38.548z"></path><path d="M40.087 12.238H25.859a1.122 1.122 0 0 1-1.136-1.024L23.641 1.67c-.054-.323.054-.647.27-.916.217-.27.541-.378.866-.378h16.392c.324 0 .649.162.865.378.217.27.325.593.27.916l-1.081 9.543a1.122 1.122 0 0 1-1.136 1.024zM26.833 9.974h12.172l.811-7.224H26.021l.812 7.224zM50.636 61.73h-35.38c-.379 0-.704-.161-.92-.43-.216-.27-.27-.648-.216-.971l2.326-8.572c.162-.486.595-.863 1.136-.863h30.674c.54 0 .974.323 1.136.863l2.326 8.572c.108.323 0 .7-.216.97-.163.27-.541.431-.866.431zM16.77 59.466h32.351l-1.73-6.308H18.5l-1.73 6.308zM53.45 9.597c-2.002 0-3.68-1.618-3.68-3.667 0-2.048 1.623-3.666 3.68-3.666 2.055 0 3.678 1.618 3.678 3.666 0 2.05-1.623 3.667-3.679 3.667zm0-5.014c-.758 0-1.353.593-1.353 1.347 0 .755.595 1.348 1.352 1.348.758 0 1.353-.593 1.353-1.348 0-.754-.595-1.347-1.353-1.347zM12.497 9.597c-2.002 0-3.679-1.618-3.679-3.667a3.676 3.676 0 0 1 3.679-3.666c2.055 0 3.678 1.618 3.678 3.666 0 2.05-1.677 3.667-3.678 3.667zm0-5.014c-.758 0-1.353.593-1.353 1.347 0 .755.595 1.348 1.353 1.348.757 0 1.352-.593 1.352-1.348 0-.754-.595-1.347-1.352-1.347zm8.926 35.906H3.083a1.2 1.2 0 0 1-1.19-1.186c0-.647.541-1.186 1.19-1.186h18.34c.65 0 1.19.539 1.19 1.186 0 .647-.54 1.186-1.19 1.186zm41.223 0h-18.34a1.2 1.2 0 0 1-1.19-1.186c0-.647.541-1.186 1.19-1.186h18.34c.65 0 1.19.539 1.19 1.186 0 .647-.54 1.186-1.19 1.186z"></path></g></svg> 