<?xml version="1.0" encoding="UTF-8"?> <svg xmlns="http://www.w3.org/2000/svg" width="69" height="62" viewBox="0 0 69 62"><g fill="#EFF3F9"><path d="M53.957 42.79L39.845 53.7l-.071.06a3.91 3.91 0 0 1-2.19 1.088c-.384.082-.773.066-1.14.12l-12.113 1.827a36.002 36.002 0 0 1-5.405.408H6.867V41.975c2.19-1.588 7.415-4.514 10.022-2.567a10.783 10.783 0 0 0 6.44 2.072h3.625a6.146 6.146 0 0 1 5.136 2.627c.406.604.548 1.088.433 1.332-.23.397-1.281.642-2.36.697H19.862c-2.913 0-4.65 1.376-4.65 3.687a.923.923 0 0 0 .443.86.936.936 0 0 0 .972 0 .923.923 0 0 0 .442-.86c0-.451 0-1.844 2.793-1.844h9.282c.365.022.73.022 1.096 0h.547c3.384.066 8.023.147 10.345-1.087l8.006-4.863c3.833-1.995 4.222-1.463 4.989-.397a.85.85 0 0 1-.148 1.143m1.643-2.22c-1.643-2.256-3.286-2.289-7.415-.13l-8.012 4.895c-1.205.636-3.63.821-5.952.854.394-.865.191-1.898-.603-3.079a8 8 0 0 0-6.68-3.448h-3.631a8.907 8.907 0 0 1-5.323-1.702C13.554 34.605 5.7 40.523 5.372 40.79a.922.922 0 0 0-.367.73v16.614c0 .51.417.925.931.925h13.012a38.295 38.295 0 0 0 5.695-.44L36.69 56.8a6.41 6.41 0 0 0 1.282-.147 5.644 5.644 0 0 0 3.067-1.523l14.09-10.877a2.706 2.706 0 0 0 .482-3.644M15.3 19.323l14.107-10.91.077-.06a3.887 3.887 0 0 1 2.19-1.087c.384-.082.767-.065 1.14-.12l12.09-1.822a36.002 36.002 0 0 1 5.406-.408h12.08v15.207c-2.218 1.582-7.415 4.508-10.021 2.561a10.783 10.783 0 0 0-6.446-2.072h-3.625a6.14 6.14 0 0 1-5.131-2.627c-.405-.603-.548-1.087-.438-1.332.235-.397 1.287-.642 2.366-.696h10.3c2.914 0 4.65-1.376 4.65-3.688a.928.928 0 0 0-.931-.924.928.928 0 0 0-.931.924c0 .452 0 1.844-2.788 1.844h-9.282a9.374 9.374 0 0 0-1.095 0h-.548c-3.384-.06-8.022-.147-10.344 1.088l-7.99 4.867c-3.833 2.002-4.217 1.463-4.983.397a.85.85 0 0 1 .147-1.142m-1.642 2.22c1.642 2.256 3.285 2.289 7.414.13l8.012-4.895c1.205-.636 3.63-.821 5.953-.854-.4.865-.197 1.898.602 3.084a8 8 0 0 0 6.676 3.443h3.625a8.913 8.913 0 0 1 5.328 1.702c4.447 3.328 12.305-2.589 12.634-2.84a.928.928 0 0 0 .361-.733V3.992a.91.91 0 0 0-.27-.652.923.923 0 0 0-.655-.267H50.31c-1.903 0-3.803.141-5.685.424L32.578 5.314c-.43.006-.857.055-1.276.146a5.716 5.716 0 0 0-3.072 1.523L14.145 17.86a2.706 2.706 0 0 0-.482 3.644"></path><path d="M2.218 59.966h2.787V39.664H2.218v20.302zm3.718 1.85H1.292a.928.928 0 0 1-.93-.925V38.739c0-.51.416-.924.93-.924h4.644c.514 0 .931.414.931.924v22.173c0 .51-.417.925-.93.925v-.022zM67.04 2.175h-2.793v20.276h2.793V2.175zM63.32.326h4.644c.514 0 .931.414.931.925v22.135c0 .51-.417.925-.931.925H63.32a.928.928 0 0 1-.93-.925V1.224c0-.51.416-.925.93-.925v.027zM25.842 35.851a1 1 0 0 1-.498-.206 1.037 1.037 0 0 1-.197-1.463l5.153-6.723a1.054 1.054 0 0 1 1.725.066l4.605 7.037 8.822-8.408a1.062 1.062 0 0 1 1.803.484c.086.38-.044.774-.34 1.028l-9.743 9.284a1.1 1.1 0 0 1-.854.283 1.02 1.02 0 0 1-.761-.468l-4.485-6.853-4.239 5.537a1.05 1.05 0 0 1-.98.402"></path><path d="M45.365 33.143a1.058 1.058 0 0 1-.701-.403 1.044 1.044 0 0 1-.208-.777l.547-3.927-4.107.245a1.056 1.056 0 0 1-.945-.464 1.04 1.04 0 0 1-.068-1.044c.167-.335.5-.556.876-.58l5.367-.349c.315-.023.623.097.838.327.217.228.32.542.28.853l-.696 5.216a1.056 1.056 0 0 1-1.183.903"></path></g></svg> 