<?xml version="1.0" encoding="UTF-8"?> <svg xmlns="http://www.w3.org/2000/svg" width="50" height="61" viewBox="0 0 50 61"><path fill="#16B2DE" d="M24.5 60.914c.324.115.676.115 1 0 25.1-8.889 24.723-30.046 24.436-45.496-.03-1.68-.06-3.274-.06-4.818 0-.86-.683-1.556-1.525-1.556-9.295 0-16.378-2.732-22.284-8.602a1.501 1.501 0 0 0-2.128 0C18.027 6.312 10.95 9.044 1.655 9.044c-.837-.003-1.52.683-1.53 1.538 0 1.543 0 3.112-.061 4.818C-.223 30.868-.601 52.025 24.5 60.914zm.5-3.112c-6.211-2.279-10.673-5.366-13.885-8.958a23.915 23.915 0 0 1 7.924-3.678c.853-.218 1.451-1 1.45-1.899v-4.245c0-.516-.162-1.018-.463-1.432a11.314 11.314 0 0 1-1.865-5.147 1.562 1.562 0 0 0-.64-1.096 4.19 4.19 0 0 1-1.75-3.405.71.71 0 0 1 .214-.517.7.7 0 0 1 .518-.205c.411.017.812-.137 1.11-.427.3-.29.47-.69.475-1.11l.043-4.003a7.033 7.033 0 0 1 .463-2.54c.95-2.377 3.346-4.942 6.363-4.942h.58v1.195a1.545 1.545 0 0 0 1.365 1.55 6.85 6.85 0 0 1 4.681 3.02 3.89 3.89 0 0 1 .707 2.24v3.455c0 .86.682 1.556 1.524 1.556a.712.712 0 0 1 .707.722 4.199 4.199 0 0 1-1.682 3.355 1.563 1.563 0 0 0-.61 1.083 11.23 11.23 0 0 1-1.938 5.285c-.31.42-.48.93-.482 1.456v4.202c.013.88.599 1.644 1.433 1.867a23.952 23.952 0 0 1 7.674 3.623C35.673 52.436 31.21 55.523 25 57.795v.007zM3.118 15.474c0-1.151.042-2.26.054-3.342 8.87-.274 15.848-2.982 21.834-8.447 5.961 5.465 12.965 8.173 21.834 8.447 0 1.083.03 2.19.055 3.342.189 10.09.402 21.786-6.096 30.949a26.966 26.966 0 0 0-7.985-3.971v-3.113a14.266 14.266 0 0 0 2.31-5.981 7.357 7.357 0 0 0 2.408-5.435 3.845 3.845 0 0 0-1.097-2.707 3.783 3.783 0 0 0-1.14-.797v-2.204a6.946 6.946 0 0 0-1.286-4.07 10.276 10.276 0 0 0-5.486-4.022v-1.475c0-.86-.682-1.556-1.524-1.556h-2.06c-4.45 0-7.82 3.455-9.186 6.878a10.145 10.145 0 0 0-.688 3.68v2.75c-.44.184-.84.45-1.183.785a3.837 3.837 0 0 0-1.146 2.757 7.335 7.335 0 0 0 2.5 5.521 14.066 14.066 0 0 0 2.218 5.783v3.112a26.948 26.948 0 0 0-8.241 4.046c-6.498-9.131-6.29-20.84-6.101-30.93h.006z"></path></svg> 