<?xml version="1.0" encoding="UTF-8"?> <svg xmlns="http://www.w3.org/2000/svg" width="58" height="56" viewBox="0 0 58 56"><path fill="#16B2DE" d="M26.787 22.703l-6.392 5.886a12.883 12.883 0 0 1 .32 8.181 1.481 1.481 0 0 1-1.819.957 1.47 1.47 0 0 1-1.023-1.775 9.956 9.956 0 0 0-.591-7.063 1.466 1.466 0 0 1 .331-1.713l7.155-6.592a2.043 2.043 0 0 0 .065-2.943 2.08 2.08 0 0 0-2.799-.124l-11.268 9.5a1.485 1.485 0 0 1-1.526.384 1.468 1.468 0 1 1-.362-2.626l11.244-9.512a5.063 5.063 0 0 1 6.818.294 4.977 4.977 0 0 1 1.438 3.605 4.98 4.98 0 0 1-1.591 3.54zM22.182 52.58c.817 0 1.48-.659 1.48-1.471 0-.813-.663-1.472-1.48-1.472s-1.48.659-1.48 1.472c0 .812.663 1.471 1.48 1.471zm11.95-46.53c-.818 0-1.48.66-1.48 1.472v.671a4.537 4.537 0 0 0-3.45 4.42c0 1.313.591 3.65 4.55 4.568h.048c2.302.524 2.302 1.401 2.302 1.713 0 1.177-.988 1.672-1.97 1.672a1.965 1.965 0 0 1-1.818-1.177 1.483 1.483 0 0 0-2.621-.443 1.465 1.465 0 0 0-.101 1.555 4.908 4.908 0 0 0 3.06 2.79v.7c0 .813.662 1.472 1.48 1.472.816 0 1.479-.659 1.479-1.471v-.7a4.537 4.537 0 0 0 3.45-4.398c0-1.312-.592-3.65-4.551-4.567h-.047c-2.297-.524-2.297-1.413-2.297-1.707 0-1.177.989-1.672 1.971-1.672a1.965 1.965 0 0 1 1.817 1.177 1.483 1.483 0 0 0 1.918.748 1.469 1.469 0 0 0 .81-1.884 4.908 4.908 0 0 0-3.065-2.778v-.689c0-.39-.157-.766-.436-1.042a1.484 1.484 0 0 0-1.05-.43zM54.324 0h-40.38a3.672 3.672 0 0 0-3.676 3.655v6.952l-4.296 4.267a11.61 11.61 0 0 0-3.45 8.288v21.19H1.48c-.394 0-.771.155-1.049.433A1.467 1.467 0 0 0 0 45.829v8.7C0 55.34.662 56 1.48 56c.817 0 1.48-.659 1.48-1.472V47.3h24.46v7.228c0 .813.662 1.472 1.48 1.472.817 0 1.479-.659 1.479-1.472v-8.7c0-.812-.662-1.47-1.48-1.47h-2.16v-1.43a11.825 11.825 0 0 0 4.8-8.083 1.48 1.48 0 0 0-.576-1.368 1.498 1.498 0 0 0-1.48-.188 1.485 1.485 0 0 0-.903 1.18 8.907 8.907 0 0 1-4.143 6.427 1.47 1.47 0 0 0-.657 1.23v2.208H5.48v-21.19a8.693 8.693 0 0 1 2.587-6.204l2.201-2.19v2.896c0 .813.663 1.472 1.48 1.472s1.48-.659 1.48-1.472V3.656c0-.394.32-.713.716-.713h40.38c.396 0 .717.319.717.712v24.192c0 .393-.32.712-.716.712H25.449c-.817 0-1.48.659-1.48 1.472 0 .812.663 1.471 1.48 1.471h28.876c2.028-.003 3.672-1.638 3.675-3.655V3.655C57.997 1.638 56.353.003 54.325 0zm-6.528 40.52c.918.339 1.934.3 2.823-.109a3.663 3.663 0 0 0 1.911-2.07l.941-2.566a1.467 1.467 0 0 0-.254-1.45 1.485 1.485 0 0 0-2.527.438l-.977 2.572a.717.717 0 0 1-.917.424l-12.511-4.556a1.483 1.483 0 0 0-1.9.877 1.47 1.47 0 0 0 .882 1.89l12.529 4.55zm-15.122.053l7.31 6.851a3.696 3.696 0 0 0 5.196-.153l1.888-1.99a1.466 1.466 0 0 0-.062-2.08 1.486 1.486 0 0 0-2.093.062l-1.887 1.989a.719.719 0 0 1-1.013.03l-7.309-6.846a1.485 1.485 0 0 0-2.089.059c-.56.59-.533 1.52.06 2.078z"></path></svg> 