<?xml version="1.0" encoding="UTF-8"?> <svg xmlns="http://www.w3.org/2000/svg" width="59" height="47" viewBox="0 0 59 47"><g fill="#16B2DE"><path d="M56.301 0H2.787C1.207 0 0 1.21 0 2.792v41.416C0 45.79 1.208 47 2.787 47h53.421c1.58 0 2.787-1.21 2.787-2.792V2.792C59.088 1.21 57.788 0 56.301 0zm.372 43.184c0 .745-.65 1.396-1.394 1.396H3.716c-.743 0-1.393-.651-1.393-1.396V9.586h54.35v33.598zm0-35.925H2.416V3.723c0-.745.65-1.396 1.393-1.396h51.563c.743 0 1.394.651 1.394 1.396v3.536h-.093z"></path><path d="M7.759 3H7.24C6.517 3 6 3.5 6 4s.62 1 1.241 1h.518C8.483 5 9 4.5 9 4s-.517-1-1.241-1zm4 0h-.518C10.517 3 10 3.5 10 4s.62 1 1.241 1h.518C12.483 5 13 4.5 13 4s-.517-1-1.241-1zm5 0h-.518C15.517 3 15 3.5 15 4s.62 1 1.241 1h.518C17.483 5 18 4.5 18 4s-.517-1-1.241-1zM7.77 31h12.46C21.8 31 23 29.818 23 28.273V17.727C23 16.182 21.8 15 20.23 15H7.77C6.2 15 5 16.182 5 17.727v10.455C5 29.727 6.2 31 7.77 31zm-.462-12.364c0-.727.646-1.363 1.384-1.363h10.616c.738 0 1.384.636 1.384 1.363v8.637c0 .727-.646 1.363-1.384 1.363H8.692c-.738 0-1.384-.636-1.384-1.363v-8.637zM27.124 19h25.752c.656 0 1.124-.5 1.124-1s-.562-1-1.124-1H27.124c-.656 0-1.124.5-1.124 1s.562 1 1.124 1zm0 5h25.752c.656 0 1.124-.5 1.124-1s-.562-1-1.124-1H27.124c-.656 0-1.124.5-1.124 1s.562 1 1.124 1zm0 9h25.752c.656 0 1.124-.5 1.124-1s-.562-1-1.124-1H27.124c-.656 0-1.124.5-1.124 1s.562 1 1.124 1zm.001-4h12.75c.656 0 1.125-.5 1.125-1s-.563-1-1.125-1h-12.75c-.656 0-1.125.5-1.125 1s.563 1 1.125 1z"></path></g></svg> 