<?xml version="1.0" encoding="UTF-8"?> <svg xmlns="http://www.w3.org/2000/svg" width="59" height="63" viewBox="0 0 59 63"><path fill="#16B2DE" d="M58.984 33.058a5.392 5.392 0 0 0-3.513-4.634 5.4 5.4 0 0 0-5.685 1.248l-8.169 8.16a5.339 5.339 0 0 0-4.959-3.321H20.262a13.515 13.515 0 0 0-9.603 3.97l-.116.116-.321-1.324a1.608 1.608 0 0 0-1.93-1.169l-7.037 1.748a1.607 1.607 0 1 0 .778 3.116l5.455-1.356 4.663 18.865-5.454 1.35a1.607 1.607 0 1 0 .778 3.116l7.011-1.742a1.606 1.606 0 0 0 1.17-1.927l-.32-1.285.076-.058 2.573-2.57h16.68a11.288 11.288 0 0 0 8.033-3.322l14.723-14.766a5.381 5.381 0 0 0 1.563-4.215zm-3.859 1.973L40.421 49.739a8.096 8.096 0 0 1-5.789 2.383H17.297c-.427 0-.836.168-1.138.47l-1.737 1.734L11.45 42.24l1.486-1.484a10.297 10.297 0 0 1 7.326-3.033h16.396a2.16 2.16 0 1 1 0 4.318h-9.713a1.607 1.607 0 1 0 0 3.213h9.713a5.34 5.34 0 0 0 4.586-2.57c.098-.061.188-.132.27-.212L52.032 31.94a2.185 2.185 0 0 1 3.088 0 2.18 2.18 0 0 1 0 3.085l.006.006zm-19.059-3.727c4.228 0 7.655-3.423 7.655-7.646s-3.427-7.646-7.655-7.646c-4.227 0-7.654 3.423-7.654 7.646a7.656 7.656 0 0 0 7.654 7.646zm0-12.073a4.436 4.436 0 0 1 4.439 4.434 4.436 4.436 0 0 1-4.439 4.433 4.436 4.436 0 0 1-4.438-4.433 4.436 4.436 0 0 1 4.438-4.434zM15.29 13.827a6.429 6.429 0 0 0 6.432 6.426 6.429 6.429 0 0 0 6.433-6.426 6.429 6.429 0 0 0-6.433-6.425 6.46 6.46 0 0 0-6.432 6.425zm9.706 0a3.21 3.21 0 0 1-1.985 2.968 3.219 3.219 0 0 1-3.505-.696 3.21 3.21 0 0 1-.697-3.501 3.216 3.216 0 0 1 2.971-1.983 3.218 3.218 0 0 1 3.236 3.212h-.02zm11.045-1.58a6.127 6.127 0 0 0 6.13-6.124A6.127 6.127 0 0 0 36.04 0a6.127 6.127 0 0 0-6.13 6.123 6.133 6.133 0 0 0 6.13 6.124zm0-9.028a2.912 2.912 0 0 1 2.913 2.91 2.912 2.912 0 0 1-2.913 2.911 2.912 2.912 0 0 1-2.914-2.91 2.912 2.912 0 0 1 2.914-2.91zM5.64 55.412a1.61 1.61 0 1 1 3.149-.135 1.607 1.607 0 0 1-1.61 1.356 1.601 1.601 0 0 1-1.538-1.22z"></path></svg> 