<?xml version="1.0" encoding="UTF-8"?> <svg xmlns="http://www.w3.org/2000/svg" width="67" height="60" viewBox="0 0 67 60"><g fill="none"><path fill="#EFF3F9" d="M.697 37.044c-.161 0-.322-.108-.483-.216a.658.658 0 0 1 .108-.81L26.318 16.74a.56.56 0 0 1 .696 0l9.756 7.236 18.974-16.47c.214-.216.59-.162.804.054.214.216.16.594-.054.81L37.198 25.164a.655.655 0 0 1-.696.054l-9.863-7.29L1.072 36.936a.77.77 0 0 1-.375.108z"></path><path fill="#EFF3F9" d="M56.334 11.232l-.858-2.7-2.52-1.296 6.38-2.052zM16.562 25.92c-.321 0-.696-.162-.91-.486-.376-.486-.269-1.242.214-1.62l10.13-7.56a1.045 1.045 0 0 1 1.34 0l9.38 6.966 5.038-4.644a1.16 1.16 0 0 1 1.608.054 1.18 1.18 0 0 1-.053 1.62l-5.735 5.238c-.376.378-1.019.378-1.448.054l-9.487-7.02-9.433 7.182c-.215.108-.43.216-.644.216z"></path><path d="M42.934 7.182c-7.826-7.884-20.53-7.884-28.355 0-7.825 7.884-7.825 20.682 0 28.566 7.826 7.884 20.529 7.884 28.355 0 7.825-7.884 7.825-20.682 0-28.566zM38.43 31.266c-5.36 5.4-14.043 5.4-19.457 0-5.413-5.4-5.36-14.148 0-19.602 5.36-5.454 14.044-5.4 19.457 0 5.36 5.454 5.36 14.202 0 19.602z"></path><path fill="#EFF3F9" d="M28.73 42.822c-5.682 0-10.988-2.214-15.008-6.264-8.255-8.316-8.255-21.87 0-30.186 8.254-8.316 21.708-8.316 29.962 0 8.254 8.316 8.254 21.87 0 30.186-3.966 4.05-9.273 6.264-14.954 6.264zm0-40.392c-5.039 0-9.81 1.998-13.4 5.562-7.397 7.452-7.397 19.548 0 26.946 3.59 3.618 8.308 5.562 13.4 5.562 5.038 0 9.808-1.998 13.4-5.562 7.343-7.452 7.343-19.494 0-26.946-3.592-3.564-8.362-5.562-13.4-5.562zm0 34.02a14.755 14.755 0 0 1-10.506-4.374 14.967 14.967 0 0 1-4.342-10.584c0-3.996 1.555-7.776 4.342-10.584A14.745 14.745 0 0 1 28.73 6.534c3.966 0 7.718 1.566 10.505 4.374a14.967 14.967 0 0 1 4.342 10.584c0 3.996-1.555 7.776-4.342 10.584A14.755 14.755 0 0 1 28.73 36.45zm0-27.648c-3.377 0-6.54 1.296-8.898 3.726-4.931 4.968-4.931 13.014 0 17.982a12.55 12.55 0 0 0 17.849 0c4.931-4.968 4.931-13.014 0-17.982a12.477 12.477 0 0 0-8.951-3.726z"></path><path fill="#EFF3F9" d="M45.667 39.474c-.268 0-.536-.108-.75-.324l-2.627-2.43c-.482-.432-.482-1.134-.053-1.62.429-.486 1.125-.486 1.608-.054l2.626 2.43c.483.432.483 1.134.054 1.62-.215.27-.536.378-.858.378z"></path><path fill="#EFF3F9" d="M60.89 59.616c-.268 0-.59-.108-.804-.324L42.88 41.958c-.429-.432-.429-1.188 0-1.62l4.61-4.644a1.16 1.16 0 0 1 1.608 0l17.205 17.334c.429.432.429 1.188 0 1.62l-4.61 4.644a1.177 1.177 0 0 1-.803.324zM45.292 41.148L60.89 56.862l3.001-3.024-15.597-15.66-3.002 2.97z"></path></g></svg> 